<svg id="Multicolor" xmlns="http://www.w3.org/2000/svg" viewBox="0 0 100 112"><defs><style>.cls-1{fill:#e8f4fa;}.cls-2{fill:#bf8256;}.cls-3{fill:#915e3a;}.cls-4{fill:#191816;opacity:0.15;}.cls-5{fill:#debb7e;}.cls-10,.cls-6{fill:none;}.cls-10,.cls-11,.cls-6{stroke:#191816;}.cls-6{stroke-miterlimit:10;}.cls-7{fill:#ffe500;}.cls-8{fill:#b89558;}.cls-9{fill:#ebcb00;}.cls-10{stroke-linecap:round;}.cls-10,.cls-11{stroke-linejoin:round;}.cls-11{fill:#fff48c;}.cls-12{fill:#6dd627;}.cls-13{fill:#46b000;}.cls-14{fill:#f0d5a8;}.cls-15{fill:#ff6242;}.cls-16{fill:#e04122;}</style></defs><title>01- hamburger</title><g id="Background"><g id="New_Symbol_1-3" data-name="New Symbol 1"><circle class="cls-1" cx="50.15" cy="56.17" r="40"/></g></g><g id="Scene"><path class="cls-2" d="M30.63,50a4.83,4.83,0,1,0,0,9.66H69.27a4.83,4.83,0,0,0,0-9.66Z"/><path class="cls-3" d="M26.67,52.1c.31,2,1.68,3.11,4,3.11a6.2,6.2,0,0,0,4.78-3.15,6,6,0,0,0,4.88,2.46A5.74,5.74,0,0,0,44,53.28a7.18,7.18,0,0,0,5.58,2.6,3,3,0,0,0,5.75-1.13v-.12a1.5,1.5,0,0,1,1.5-1.49A2.19,2.19,0,0,1,59,55.32v.35a3,3,0,1,0,6,0V53.16a6.16,6.16,0,0,0,4.26,2.05c2.27,0,3.65-1.1,4-3.11a4.88,4.88,0,0,0-3-2L69.27,50H30.63l-.69,0A4.86,4.86,0,0,0,26.67,52.1Z"/><ellipse class="cls-4" cx="50.09" cy="85.4" rx="13.8" ry="1.72"/><path class="cls-5" d="M29.94,69.35H70a0,0,0,0,1,0,0v3.52a2,2,0,0,1-2,2h-36a2,2,0,0,1-2-2V69.35A0,0,0,0,1,29.94,69.35Z"/><path class="cls-2" d="M30.63,59.69a4.83,4.83,0,0,0,0,9.66H69.27a4.83,4.83,0,0,0,0-9.66Z"/><path class="cls-6" d="M30.63,50a4.83,4.83,0,1,0,0,9.66H69.27a4.83,4.83,0,0,0,0-9.66Z"/><path class="cls-3" d="M69.27,59.69H30.63a4.8,4.8,0,0,0-2.65.79v3.57a3.34,3.34,0,1,0,6.67,0,.81.81,0,0,1,1.61,0,4.72,4.72,0,1,0,9.43,0,.81.81,0,0,1,1.61,0,3.34,3.34,0,1,0,6.67,0,.81.81,0,0,1,1.61,0,4.72,4.72,0,1,0,9.43,0,.81.81,0,0,1,1.61,0,2,2,0,1,0,3.91,0V59.86A4.73,4.73,0,0,0,69.27,59.69Z"/><path class="cls-7" d="M69.27,59.69H30.63a4.8,4.8,0,0,0-2.07.47V63a2.76,2.76,0,1,0,5.52,0,1.38,1.38,0,0,1,2.76,0,4.14,4.14,0,0,0,8.28,0,1.38,1.38,0,0,1,2.76,0,2.76,2.76,0,0,0,5.52,0,1.38,1.38,0,1,1,2.76,0,4.14,4.14,0,0,0,8.28,0,1.38,1.38,0,0,1,2.76,0A1.38,1.38,0,1,0,70,63V59.74A5.34,5.34,0,0,0,69.27,59.69Z"/><rect class="cls-8" x="29.94" y="69.35" width="40.02" height="2.07"/><path class="cls-9" d="M70,59.74a5.34,5.34,0,0,0-.69-.05H30.63a4.8,4.8,0,0,0-2.07.47v1.6h6.35a1.42,1.42,0,0,1,.55-.11,1.37,1.37,0,0,1,.54.11H46a1.42,1.42,0,0,1,.55-.11,1.37,1.37,0,0,1,.54.11h7.19a1.42,1.42,0,0,1,.55-.11,1.37,1.37,0,0,1,.54.11h9.95a1.42,1.42,0,0,1,.55-.11,1.37,1.37,0,0,1,.54.11H70Z"/><path class="cls-10" d="M29.94,69.35H70a0,0,0,0,1,0,0v3.52a2,2,0,0,1-2,2h-36a2,2,0,0,1-2-2V69.35A0,0,0,0,1,29.94,69.35Z"/><path class="cls-10" d="M30.63,59.69a4.83,4.83,0,0,0,0,9.66H69.27a4.83,4.83,0,0,0,0-9.66Z"/><path class="cls-10" d="M69.27,59.69H30.63a4.8,4.8,0,0,0-2.07.47V63a2.76,2.76,0,1,0,5.52,0,1.38,1.38,0,0,1,2.76,0,4.14,4.14,0,0,0,8.28,0,1.38,1.38,0,0,1,2.76,0,2.76,2.76,0,0,0,5.52,0,1.38,1.38,0,1,1,2.76,0,4.14,4.14,0,0,0,8.28,0,1.38,1.38,0,0,1,2.76,0A1.38,1.38,0,1,0,70,63V59.74A5.34,5.34,0,0,0,69.27,59.69Z"/><path class="cls-11" d="M32.7,71.88a2.07,2.07,0,0,1-4.14,0c0-1.14,2.07-4.14,2.07-4.14S32.7,70.74,32.7,71.88Z"/><path class="cls-12" d="M70,45.89h-40A4.59,4.59,0,0,0,27.18,50c0,2.29,1.16,3.45,3.45,3.45a5.66,5.66,0,0,0,4.69-3.83,5.51,5.51,0,0,0,5,3.14,4.84,4.84,0,0,0,3.83-1.58c1,2,3.44,3,5.83,3a6.18,6.18,0,0,0,5.47-3.33c1.14-1,7-1.41,9-1.19.29,2.1,2.89,3.83,4.83,3.83,2.28,0,3.45-1.16,3.45-3.45A4.61,4.61,0,0,0,70,45.89Z"/><path class="cls-13" d="M27.75,47.85h44.4a5.72,5.72,0,0,0-2.19-2h-40A5.58,5.58,0,0,0,27.75,47.85Z"/><path class="cls-10" d="M70,45.89h-40A4.59,4.59,0,0,0,27.18,50c0,2.29,1.16,3.45,3.45,3.45a5.66,5.66,0,0,0,4.69-3.83,5.51,5.51,0,0,0,5,3.14,4.84,4.84,0,0,0,3.83-1.58c1,2,3.44,3,5.83,3a6.18,6.18,0,0,0,5.47-3.33c1.14-1,7-1.41,9-1.19.29,2.1,2.89,3.83,4.83,3.83,2.28,0,3.45-1.16,3.45-3.45A4.61,4.61,0,0,0,70,45.89Z"/><path class="cls-5" d="M29.94,45.89c0-11,9-16.56,20-16.56s20,5.51,20,16.56Z"/><path class="cls-14" d="M50,32c10.12,0,18.47,4.64,19.8,13.91H70c0-11-9-16.56-20-16.56s-20,5.51-20,16.56h.2C31.48,36.62,39.82,32,50,32Z"/><path class="cls-10" d="M29.94,45.89c0-11,9-16.56,20-16.56s20,5.51,20,16.56Z"/><path class="cls-15" d="M46.27,45.89V49.8a1.61,1.61,0,0,0,1.61,1.61A2.07,2.07,0,0,1,50,53.48v.12a2.42,2.42,0,0,0,4.83,0v-.12a2.07,2.07,0,0,1,2.07-2.07,2.77,2.77,0,0,1,2.76,2.76v.35a2.42,2.42,0,0,0,4.83,0V45.89Z"/><rect class="cls-16" x="46.27" y="45.89" width="18.17" height="1.96"/><path class="cls-10" d="M46.27,45.89V49.8a1.61,1.61,0,0,0,1.61,1.61A2.07,2.07,0,0,1,50,53.48v.12a2.42,2.42,0,0,0,4.83,0v-.12a2.07,2.07,0,0,1,2.07-2.07,2.77,2.77,0,0,1,2.76,2.76v.35a2.42,2.42,0,0,0,4.83,0V45.89Z"/><circle class="cls-6" cx="60.99" cy="39.68" r="0.57"/><circle class="cls-6" cx="55.47" cy="35.55" r="0.57"/><circle class="cls-6" cx="44.43" cy="35.55" r="0.58"/><circle class="cls-6" cx="38.91" cy="39.68" r="0.57"/><circle class="cls-6" cx="49.95" cy="38.3" r="0.57"/></g></svg>